<?xml version="1.0" encoding="utf-8"?>
<!-- Generator: Adobe Illustrator 19.2.1, SVG Export Plug-In . SVG Version: 6.00 Build 0)  -->
<svg version="1.1" id="Layer_1" xmlns="http://www.w3.org/2000/svg" xmlns:xlink="http://www.w3.org/1999/xlink" x="0px" y="0px"
	 viewBox="0 0 1211.5 756" style="enable-background:new 0 0 1211.5 756;" xml:space="preserve">
<style type="text/css">
	.st0{fill:#35567B;}
	.st1{fill:none;stroke:#3D6995;stroke-width:32.5675;stroke-linecap:round;stroke-linejoin:round;stroke-miterlimit:10;}
	.st2{fill:none;stroke:#35567B;stroke-width:32.5675;stroke-linecap:round;stroke-linejoin:round;stroke-miterlimit:10;}
	.st3{fill:#F062A0;}
	.st4{fill:#FBE90C;}
	.st5{fill:#F29320;}
	.st6{fill:#39A9E0;}
	.st7{fill:#6A767D;}
	.st8{fill:#EBA387;}
	.st9{fill:#F9B092;}
	.st10{fill:#657C8E;}
	.st11{fill:#FDEC0A;}
	.st12{opacity:0.17;fill:#1D1D1B;}
	.st13{fill:#CCC6E3;}
	.st14{opacity:0.11;fill:#1D1D1B;}
	.st15{fill:#A2DAD8;}
	.st16{fill:#91D3CC;}
	.st17{fill:#F9D084;}
	.st18{opacity:0.15;fill:#1D1D1B;}
	.st19{fill:#C9E7F9;}
	.st20{fill:#8DA6B8;}
	.st21{fill:#2569B3;}
	.st22{fill:#F7EB73;}
	.st23{fill:#2E7CC0;}
	.st24{fill:none;stroke:#2569B3;stroke-width:26.5683;stroke-linecap:round;stroke-linejoin:round;stroke-miterlimit:10;}
	.st25{fill:#E776A6;}
	.st26{fill:#C3D1EB;}
	.st27{fill:#93A0C2;}
	.st28{fill:#AEAEC5;}
	.st29{fill:#FFFFFF;}
	.st30{fill:#F0E1C9;}
	.st31{fill:#EDF1FA;}
	.st32{fill:#AF6A4B;}
	.st33{fill:#BA7C64;}
	.st34{fill:#78CDD3;}
	.st35{fill:#2D9497;}
	.st36{fill:#FBC4A9;}
	.st37{fill:#F89E73;}
	.st38{fill:#1D737D;}
	.st39{fill:#15666F;}
	.st40{fill:#30858E;}
	.st41{fill:#0E6670;}
	.st42{fill:#C3D1EB;stroke:#1D737D;stroke-width:3.7206;stroke-miterlimit:10;}
	.st43{fill:none;stroke:#1D737D;stroke-width:3.7206;stroke-miterlimit:10;}
	.st44{fill:#C3D1EB;stroke:#1D737D;stroke-width:3.9049;stroke-miterlimit:10;}
	.st45{fill:none;stroke:#1D737D;stroke-width:3.9049;stroke-miterlimit:10;}
	.st46{fill:#C3D1EB;stroke:#1D737D;stroke-width:3.3241;stroke-miterlimit:10;}
	.st47{fill:none;stroke:#FFFFFF;stroke-width:7.7614;stroke-linecap:round;stroke-linejoin:round;stroke-miterlimit:10;}
	.st48{fill:none;stroke:#FFFFFF;stroke-width:8.0581;stroke-linecap:round;stroke-linejoin:round;stroke-miterlimit:10;}
	.st49{fill:none;stroke:#30858E;stroke-width:7.7614;stroke-linecap:round;stroke-linejoin:round;stroke-miterlimit:10;}
	.st50{fill:#D6DEB1;}
	.st51{fill:#B8C08E;}
	.st52{fill:#E4885B;}
	.st53{fill:#FAB999;}
	.st54{fill:#C3D1EB;stroke:#1D737D;stroke-width:4.2625;stroke-miterlimit:10;}
	.st55{fill:none;stroke:#1D737D;stroke-width:4.2625;stroke-miterlimit:10;}
	.st56{fill:none;stroke:#FAB999;stroke-width:7.7614;stroke-linecap:round;stroke-linejoin:round;stroke-miterlimit:10;}
	.st57{fill:#37ADB3;}
	.st58{fill:#297F83;}
	.st59{fill:none;stroke:#FFFFFF;stroke-width:12.0871;stroke-linecap:round;stroke-linejoin:round;stroke-miterlimit:10;}
	.st60{fill:none;stroke:#C3D1EB;stroke-width:14.7731;stroke-linecap:round;stroke-linejoin:round;stroke-miterlimit:10;}
	.st61{fill:#CCE3F6;}
	.st62{fill:#B5D5F0;}
	.st63{fill:#B6C6E6;}
	.st64{fill:#AED0EE;}
	.st65{fill:#C3DDF4;}
	.st66{fill:#AED24E;}
	.st67{fill:#08ACBA;}
	.st68{fill:#067D87;}
	.st69{fill:#6096C7;}
	.st70{fill:none;stroke:#6096C7;stroke-width:19.4787;stroke-linecap:round;stroke-linejoin:round;stroke-miterlimit:10;}
	.st71{fill:#7D9C3D;}
	.st72{fill:#ADD1EF;}
	.st73{fill:#BBC5CB;}
	.st74{fill:#A4B2B8;}
	.st75{fill:#96B540;}
	.st76{fill:none;stroke:#9CC1E5;stroke-width:6.9567;stroke-linecap:round;stroke-linejoin:round;stroke-miterlimit:10;}
	.st77{fill:none;stroke:#6096C7;stroke-width:18.0873;stroke-linecap:round;stroke-linejoin:round;stroke-miterlimit:10;}
	.st78{fill:none;stroke:#AF6A4B;stroke-width:15.0125;stroke-linecap:round;stroke-linejoin:round;stroke-miterlimit:10;}
	.st79{fill:none;stroke:#BA7C64;stroke-width:16.4465;stroke-linecap:round;stroke-linejoin:round;stroke-miterlimit:10;}
	.st80{fill:none;stroke:#AF6A4B;stroke-width:14.4833;stroke-linecap:round;stroke-linejoin:round;stroke-miterlimit:10;}
	.st81{fill:none;stroke:#AF6A4B;stroke-width:15.7073;stroke-linecap:round;stroke-linejoin:round;stroke-miterlimit:10;}
	.st82{fill:#F9C6D6;}
	.st83{fill:#F29BB3;}
	.st84{fill:none;stroke:#D890BE;stroke-width:17.7404;stroke-linecap:round;stroke-linejoin:round;stroke-miterlimit:10;}
	.st85{fill:none;stroke:#F8C3DA;stroke-width:21.7533;stroke-linecap:round;stroke-linejoin:round;stroke-miterlimit:10;}
	.st86{fill:none;stroke:#F8C3DA;stroke-width:16.8066;stroke-linecap:round;stroke-linejoin:round;stroke-miterlimit:10;}
	.st87{fill:none;stroke:#F8C3DA;stroke-width:19.9405;stroke-linecap:round;stroke-linejoin:round;stroke-miterlimit:10;}
	.st88{fill:none;stroke:#F8C3DA;stroke-width:16.315;stroke-linecap:round;stroke-linejoin:round;stroke-miterlimit:10;}
	.st89{fill:none;stroke:#D890BE;stroke-width:24.4725;stroke-linecap:round;stroke-linejoin:round;stroke-miterlimit:10;}
	.st90{fill:none;stroke:#D890BE;stroke-width:22.6597;stroke-linecap:round;stroke-linejoin:round;stroke-miterlimit:10;}
	.st91{fill:none;stroke:#F8C3DA;stroke-width:23.5661;stroke-linecap:round;stroke-linejoin:round;stroke-miterlimit:10;}
	.st92{fill:none;stroke:#D890BE;stroke-width:21.7533;stroke-linecap:round;stroke-linejoin:round;stroke-miterlimit:10;}
	.st93{fill:none;stroke:#D890BE;stroke-width:19.0342;stroke-linecap:round;stroke-linejoin:round;stroke-miterlimit:10;}
	.st94{fill:#D890BE;stroke:#D890BE;stroke-width:14.5022;stroke-linecap:round;stroke-linejoin:round;stroke-miterlimit:10;}
	.st95{fill:#D890BE;stroke:#D890BE;stroke-width:12.6894;stroke-linecap:round;stroke-linejoin:round;stroke-miterlimit:10;}
	.st96{fill:none;stroke:#A7CF48;stroke-width:15.4086;stroke-linecap:round;stroke-linejoin:round;stroke-miterlimit:10;}
	.st97{fill:none;stroke:#F8C3DA;stroke-width:15.4086;stroke-linecap:round;stroke-linejoin:round;stroke-miterlimit:10;}
	.st98{fill:#D890BE;stroke:#D890BE;stroke-width:18.1278;stroke-linecap:round;stroke-linejoin:round;stroke-miterlimit:10;}
	.st99{fill:#FBF062;}
	.st100{fill:#F8B232;}
	.st101{fill:none;stroke:#669ED3;stroke-width:24.9538;stroke-linecap:round;stroke-linejoin:round;stroke-miterlimit:10;}
	.st102{fill:none;stroke:#669ED3;stroke-width:24.5417;stroke-linecap:round;stroke-linejoin:round;stroke-miterlimit:10;}
	.st103{fill:none;stroke:#ADD1EF;stroke-width:24.5417;stroke-linecap:round;stroke-linejoin:round;stroke-miterlimit:10;}
	.st104{fill:#97C5EA;}
	.st105{fill:#A53C92;stroke:#669ED3;stroke-width:24.5417;stroke-linecap:round;stroke-linejoin:round;stroke-miterlimit:10;}
	.st106{fill:none;stroke:#F68C3A;stroke-width:24.5417;stroke-linecap:round;stroke-linejoin:round;stroke-miterlimit:10;}
	.st107{fill:none;stroke:#97C5EA;stroke-width:24.5417;stroke-linecap:round;stroke-linejoin:round;stroke-miterlimit:10;}
	.st108{fill:#7E5342;}
	.st109{fill:#996652;}
	.st110{fill:#F8C3DA;}
	.st111{opacity:0.69;fill:#D890BE;}
	.st112{opacity:0.56;fill:#FFFFFF;}
	.st113{fill:#DCE5F4;}
	.st114{fill:#CAD5ED;}
	.st115{fill:#ECF0F9;}
	.st116{fill:#D6DFF2;}
	.st117{fill:#80C348;}
	.st118{fill:#80C343;}
	.st119{fill:#08A186;}
	.st120{fill:#09939F;}
	.st121{fill:#24B786;}
	.st122{fill:#F27085;}
	.st123{fill:#EC697B;}
	.st124{fill:none;stroke:#08ACBA;stroke-width:54.4622;stroke-linecap:round;stroke-linejoin:round;stroke-miterlimit:10;}
	.st125{fill:#8EC74F;}
	.st126{fill:#F26965;}
	.st127{fill:none;stroke:#FFFFFF;stroke-width:12.2597;stroke-miterlimit:10;}
	.st128{opacity:0.13;fill:#1D1D1B;}
	.st129{fill:#96CB60;}
	.st130{fill:#FDEF40;}
	.st131{fill:#CE88BA;}
	.st132{fill:#98CBEE;}
	.st133{fill:#6B89C1;}
	.st134{fill:#C5DB65;}
	.st135{fill:#ADCF54;}
	.st136{fill:none;stroke:#13815A;stroke-width:3.5086;stroke-miterlimit:10;}
	.st137{fill:#139266;}
	.st138{fill:#179E6F;}
	.st139{fill:#13815A;}
	.st140{fill:#B45749;}
	.st141{fill:none;stroke:#505170;stroke-width:4.5446;stroke-linecap:round;stroke-linejoin:round;stroke-miterlimit:10;}
	.st142{fill:none;stroke:#13815A;stroke-width:4.2623;stroke-miterlimit:10;}
	.st143{fill:#F04A58;}
	.st144{fill:#E83140;}
	.st145{fill:none;stroke:#505170;stroke-width:7.2918;stroke-linecap:round;stroke-linejoin:round;stroke-miterlimit:10;}
	.st146{fill:#505170;}
	.st147{fill:none;stroke:#505170;stroke-width:4.8612;stroke-linecap:round;stroke-linejoin:round;stroke-miterlimit:10;}
	.st148{fill:#FFD341;}
	.st149{fill:#FFCF2E;}
	.st150{fill:none;stroke:#505170;stroke-width:7.0591;stroke-linecap:round;stroke-linejoin:round;stroke-miterlimit:10;}
	.st151{fill:none;stroke:#505170;stroke-width:4.7061;stroke-linecap:round;stroke-linejoin:round;stroke-miterlimit:10;}
	.st152{fill:#8DD3D1;}
	.st153{fill:#DFF3FD;}
	.st154{fill:#AAE0FA;}
	.st155{fill:#B2E0E0;}
	.st156{fill:#C4E9FB;}
	.st157{fill:#72CEE8;}
	.st158{fill:#FDF05C;}
	.st159{fill:#E6E867;}
	.st160{fill:#B3D55F;}
	.st161{fill:#8AD4E2;}
	.st162{fill:none;stroke:#F8B232;stroke-width:11.2323;stroke-miterlimit:10;}
	.st163{fill:#D8E14B;}
	.st164{opacity:0.42;fill:#E1EFFA;}
	.st165{opacity:0.56;fill:#B5C736;}
	.st166{opacity:0.6;fill:#FFFFFF;}
	.st167{fill:#C5DFF4;}
	.st168{opacity:0.25;fill:#1D1D1B;}
	.st169{fill:#6C8DC8;}
	.st170{fill:#5F7CB1;}
	.st171{fill:#F7EA63;}
	.st172{fill:#7B9CD1;}
	.st173{fill:#A1DBE8;}
	.st174{fill:#E75B68;}
	.st175{fill:#F1F6FC;}
	.st176{opacity:0.82;fill:#E6E867;}
	.st177{opacity:0.56;}
	.st178{fill:#B5C736;}
	.st179{fill:#FEC776;}
	.st180{fill:#ACE1F7;}
	.st181{fill:#D88ABB;}
	.st182{fill:#70D0F6;}
	.st183{fill:none;stroke:#FFFFFF;stroke-width:32.7763;stroke-linecap:round;stroke-linejoin:round;stroke-miterlimit:10;}
	.st184{fill:none;stroke:#FFFFFF;stroke-width:39.0909;stroke-linecap:round;stroke-linejoin:round;stroke-miterlimit:10;}
	.st185{fill:none;stroke:#FEE25E;stroke-width:62.8461;stroke-linecap:round;stroke-linejoin:round;stroke-miterlimit:10;}
	.st186{fill:#58C3F0;}
	.st187{fill:none;stroke:#FEE25E;stroke-width:68.7236;stroke-linecap:round;stroke-linejoin:round;stroke-miterlimit:10;}
	.st188{fill:#FEE25E;}
	.st189{fill:none;stroke:#FFCF5F;stroke-width:47.9458;stroke-linecap:round;stroke-linejoin:round;stroke-miterlimit:10;}
	.st190{fill:#CA9E68;}
	.st191{fill:#B17F4A;}
	.st192{opacity:0.23;fill:#1D1D1B;}
	.st193{fill:#6DC497;}
	.st194{fill:#31AC66;}
	.st195{fill:none;stroke:#F89E73;stroke-width:37.0474;stroke-linecap:round;stroke-linejoin:round;stroke-miterlimit:10;}
	.st196{opacity:0.23;fill:#FFFFFF;}
	.st197{fill:none;stroke:#FFFFFF;stroke-width:35.1053;stroke-linecap:round;stroke-linejoin:round;stroke-miterlimit:10;}
	.st198{fill:none;stroke:#BABADD;stroke-width:44.7866;stroke-linecap:round;stroke-linejoin:round;stroke-miterlimit:10;}
	.st199{fill:none;stroke:#F89E73;stroke-width:43.4637;stroke-linecap:round;stroke-linejoin:round;stroke-miterlimit:10;}
	.st200{fill:none;stroke:#FEC776;stroke-width:49.9051;stroke-linecap:round;stroke-linejoin:round;stroke-miterlimit:10;}
	.st201{fill:#FFF2D8;}
	.st202{fill:#F47A55;}
	.st203{opacity:0.29;fill:#1D1D1B;}
	.st204{fill:#FAB070;}
	.st205{fill:#2DBAA3;}
	.st206{fill:#F59AA5;}
	.st207{fill:#1D1D1B;}
	.st208{opacity:0.22;fill:#1D1D1B;}
	.st209{fill:none;stroke:#9A684C;stroke-width:10.5705;stroke-miterlimit:10;}
	.st210{fill:none;stroke:#505170;stroke-width:3.4337;stroke-linecap:round;stroke-linejoin:round;stroke-miterlimit:10;}
	.st211{fill:none;stroke:#505170;stroke-width:5.8219;stroke-linecap:round;stroke-linejoin:round;stroke-miterlimit:10;}
	.st212{fill:none;stroke:#13815A;stroke-width:2.7629;stroke-miterlimit:10;}
	.st213{fill:#B5D565;}
	.st214{fill:#D0E073;}
	.st215{fill:#EBF0BA;}
	.st216{fill:#9A684C;}
	.st217{fill:#F2B998;}
	.st218{fill:none;}
	.st219{opacity:0.14;fill:#1D1D1B;}
	.st220{opacity:0.21;fill:#1D1D1B;}
	.st221{fill:#894E9F;}
	.st222{fill:#662C83;}
	.st223{fill:none;stroke:#AD7760;stroke-width:28.0403;stroke-linecap:round;stroke-linejoin:round;stroke-miterlimit:10;}
	.st224{fill:#F37546;}
	.st225{fill:#FEDE5D;}
	.st226{fill:#F58459;}
	.st227{fill:#F68B3B;}
	.st228{fill:#F69068;}
	.st229{fill:none;stroke:#13815A;stroke-width:3.2518;stroke-miterlimit:10;}
	.st230{fill:none;stroke:#FFFFFF;stroke-width:43.031;stroke-linecap:round;stroke-linejoin:round;stroke-miterlimit:10;}
	.st231{fill:#FBD5DD;}
	.st232{fill:#61BE72;}
	.st233{fill:#F7EB71;}
	.st234{fill:#F6B35C;}
	.st235{fill:#DC663F;}
	.st236{fill:none;stroke:#C7D54B;stroke-width:51.4716;stroke-linecap:round;stroke-linejoin:round;stroke-miterlimit:10;}
	.st237{fill:none;stroke:#C7D54B;stroke-width:53.6995;stroke-linecap:round;stroke-linejoin:round;stroke-miterlimit:10;}
	.st238{fill:#C7D54B;}
	.st239{fill:none;stroke:#B5E4FA;stroke-width:56.7283;stroke-linecap:round;stroke-linejoin:round;stroke-miterlimit:10;}
	.st240{fill:none;stroke:#91D7F4;stroke-width:54.3646;stroke-linecap:round;stroke-linejoin:round;stroke-miterlimit:10;}
	.st241{fill:none;stroke:#B5E4FA;stroke-width:54.3646;stroke-linecap:round;stroke-linejoin:round;stroke-miterlimit:10;}
	.st242{fill:none;stroke:#B5E4FA;stroke-width:47.2736;stroke-linecap:round;stroke-linejoin:round;stroke-miterlimit:10;}
	.st243{fill:#91D7F4;}
	.st244{fill:none;stroke:#C7D54B;stroke-width:30.4151;stroke-linecap:round;stroke-linejoin:round;stroke-miterlimit:10;}
	.st245{fill:#29BAA0;}
	.st246{fill:#455565;}
	.st247{fill:#95C13D;}
	.st248{fill:#AC4A6C;}
	.st249{fill:#A53C92;}
	.st250{fill:none;stroke:#6096C7;stroke-width:19.7002;stroke-linecap:round;stroke-linejoin:round;stroke-miterlimit:10;}
	.st251{fill:none;stroke:#A53C92;stroke-width:27.1789;stroke-linecap:round;stroke-linejoin:round;stroke-miterlimit:10;}
	.st252{fill:none;stroke:#A53C92;stroke-width:31;stroke-linecap:round;stroke-linejoin:round;stroke-miterlimit:10;}
	.st253{fill:none;stroke:#F7EB73;stroke-width:26.7301;stroke-linecap:round;stroke-linejoin:round;stroke-miterlimit:10;}
	.st254{fill:none;stroke:#F68C3A;stroke-width:26.7301;stroke-linecap:round;stroke-linejoin:round;stroke-miterlimit:10;}
	.st255{fill:none;stroke:#A53C92;stroke-width:26.7301;stroke-linecap:round;stroke-linejoin:round;stroke-miterlimit:10;}
	.st256{fill:#F68C3A;}
	.st257{fill:#A53C92;stroke:#A53C92;stroke-width:26.7301;stroke-linecap:round;stroke-linejoin:round;stroke-miterlimit:10;}
	.st258{fill:#CFC2E0;}
	.st259{fill:#BFB2D7;}
	.st260{fill:#A294C7;}
	.st261{fill:#AD9ECC;}
	.st262{fill:#DED5EA;}
	.st263{fill:#DED154;}
	.st264{fill:#4F6274;}
	.st265{fill:#C2D991;}
	.st266{fill:#A1AE88;}
	.st267{fill:#9EB177;}
	.st268{fill:#7B8A5D;}
	.st269{fill:#DEDC1F;stroke:#455565;stroke-width:5.5601;stroke-linecap:round;stroke-linejoin:round;stroke-miterlimit:10;}
	.st270{fill:none;stroke:#455565;stroke-width:3.7067;stroke-miterlimit:10;}
	.st271{fill:#9C9C9B;stroke:#455565;stroke-width:3.9562;stroke-linecap:round;stroke-linejoin:round;stroke-miterlimit:10;}
	.st272{fill:#DEDC1F;stroke:#455565;stroke-width:6.1782;stroke-linecap:round;stroke-linejoin:round;stroke-miterlimit:10;}
	.st273{fill:none;stroke:#455565;stroke-width:4.1188;stroke-miterlimit:10;}
	.st274{fill:#DBDADA;stroke:#455565;stroke-width:4.3961;stroke-linecap:round;stroke-linejoin:round;stroke-miterlimit:10;}
	.st275{fill:#C8567E;}
	.st276{fill:#D9E7A4;}
	.st277{fill:#FDEC0A;stroke:#455565;stroke-width:5.346;stroke-miterlimit:10;}
	.st278{fill:#C0E6ED;}
	.st279{fill:#7FA1A3;}
	.st280{fill:#AEDBDE;}
	.st281{fill:#717070;}
	.st282{fill:#DEDC1F;stroke:#455565;stroke-width:6.1322;stroke-linecap:round;stroke-linejoin:round;stroke-miterlimit:10;}
	.st283{fill:none;stroke:#455565;stroke-width:4.0882;stroke-miterlimit:10;}
	.st284{fill:#DBDADA;stroke:#455565;stroke-width:4.3633;stroke-linecap:round;stroke-linejoin:round;stroke-miterlimit:10;}
	.st285{fill:#9C9C9B;stroke:#455565;stroke-width:4.3633;stroke-linecap:round;stroke-linejoin:round;stroke-miterlimit:10;}
	.st286{fill:#5C7388;}
	.st287{fill:none;stroke:#455565;stroke-width:26.7301;stroke-linecap:round;stroke-linejoin:round;stroke-miterlimit:10;}
	.st288{fill:#F17922;}
	.st289{fill:#F89C58;}
	.st290{fill:none;stroke:#3D3D3C;stroke-width:3.9413;stroke-miterlimit:10;}
	.st291{fill:#3D3D3C;}
	.st292{fill:#A53C92;stroke:#A53C92;stroke-width:28;stroke-linecap:round;stroke-linejoin:round;stroke-miterlimit:10;}
	.st293{fill:#D2EEF7;}
	.st294{fill:#C0E7F2;}
	.st295{fill:#577699;}
	.st296{fill:none;stroke:#9D8EC4;stroke-width:21.4812;stroke-linecap:round;stroke-linejoin:round;stroke-miterlimit:10;}
	.st297{fill:none;stroke:#9D8EC4;stroke-width:16.7076;stroke-linecap:round;stroke-linejoin:round;stroke-miterlimit:10;}
	.st298{fill:#8F80BC;}
	.st299{fill:#FBAB28;}
	.st300{fill:none;stroke:#9D8EC4;stroke-width:19.2832;stroke-linecap:round;stroke-linejoin:round;stroke-miterlimit:10;}
	.st301{fill:none;stroke:#9D8EC4;stroke-width:14.998;stroke-linecap:round;stroke-linejoin:round;stroke-miterlimit:10;}
	.st302{fill:#9485BF;}
	.st303{fill:none;stroke:#455565;stroke-width:11.584;stroke-linecap:round;stroke-linejoin:round;stroke-miterlimit:10;}
	.st304{fill:#E8DB18;}
	.st305{fill:#FDEE1C;}
	.st306{fill:none;stroke:#BDDBF3;stroke-width:6.1335;stroke-linecap:round;stroke-linejoin:round;stroke-miterlimit:10;}
	.st307{fill:#E1F1FB;}
	.st308{fill:none;stroke:#445070;stroke-width:104.9949;stroke-linecap:round;stroke-linejoin:round;stroke-miterlimit:10;}
	.st309{fill:#445070;}
	.st310{fill:#FFD686;}
	.st311{fill:#B6C4E5;}
	.st312{fill:#FACD74;}
	.st313{fill:#FFE4B0;}
	.st314{fill:#C75869;}
	.st315{fill:none;stroke:#F27085;stroke-width:6.2994;stroke-linecap:round;stroke-linejoin:round;stroke-miterlimit:10;}
	.st316{fill:#F5C668;}
	.st317{fill:#E66678;}
	.st318{fill:#926940;}
	.st319{fill:#683E17;}
	.st320{fill:#ABD0EE;}
	.st321{fill:#85B0D9;}
	.st322{fill:#FCD0BB;}
	.st323{fill:#F9AFA4;}
	.st324{fill:#F69888;}
	.st325{fill:#526187;}
	.st326{fill:none;stroke:#F8A79A;stroke-width:2;stroke-miterlimit:10;}
	.st327{fill:none;stroke:#FABEB4;stroke-width:2;stroke-miterlimit:10;}
	.st328{fill:#F29320;stroke:#526187;stroke-width:1.7536;stroke-miterlimit:10;}
	.st329{fill:none;stroke:#FFFFFF;stroke-width:5.2559;stroke-linecap:round;stroke-linejoin:round;stroke-miterlimit:10;}
	.st330{fill:none;stroke:#FAB999;stroke-width:5.2559;stroke-linecap:round;stroke-linejoin:round;stroke-miterlimit:10;}
	.st331{fill:#A7D9C1;}
	.st332{fill:#75C69A;}
	.st333{fill:#EC697A;}
	.st334{fill:none;stroke:#A7D9C1;stroke-width:2;stroke-miterlimit:10;}
	.st335{fill:none;stroke:#75C69A;stroke-width:2;stroke-miterlimit:10;}
	.st336{fill:none;stroke:#B8C08E;stroke-width:2;stroke-miterlimit:10;}
	.st337{fill:#F8ED87;}
	.st338{fill:#F8F4C7;}
	.st339{fill:none;stroke:#F8B2B3;stroke-width:1.169;stroke-linecap:round;stroke-linejoin:round;stroke-miterlimit:10;}
	.st340{fill:#6C7EB1;}
	.st341{fill:#C9E0F4;}
	.st342{fill:#8DB5DF;}
	.st343{fill:#E86778;}
</style>
<g>
	<g>
		<path class="st179" d="M637.2,55.1c0,15.2-6.1,29-15.9,39c-9.8,10-23.4,16.1-38.4,16.1H93.6V81c6.1-45.8,44.8-81,91.6-81h397.7
			C612.9,0,637.2,24.7,637.2,55.1z"/>
		<path class="st180" d="M1185.1,474.3v0.8c0,20.7-11.5,38.7-28.4,48c-0.1,0.1-0.2,0.1-0.3,0.2c-7.7,4.2-16.6,6.6-26,6.6H91.3
			c-10.6,0-20.5-3-28.9-8.3c-15.5-9.7-25.8-26.8-25.8-46.4v-0.8c0-4.5,0.5-8.8,1.6-13c0.2-0.9,0.5-1.9,0.8-2.8
			c4.1-13.6,13.3-25,25.4-31.8c3.1-1.8,6.4-3.2,9.8-4.4h0c4.8-1.6,9.9-2.5,15.1-2.7c0.7,0,1.3,0,2,0h1039.1c6,0,11.8,1,17.2,2.7
			c1.9,0.6,3.8,1.4,5.6,2.2c14,6.4,24.8,18.5,29.5,33.4c0.3,0.9,0.5,1.8,0.8,2.7C1184.5,465,1185.1,469.6,1185.1,474.3z"/>
		<path class="st29" d="M194.6,137.5h-33.8c-14.3,0-26-11.6-26-26v-0.4c0-14.3,11.6-26,26-26h33.8c14.3,0,26,11.6,26,26v0.4
			C220.6,125.9,208.9,137.5,194.6,137.5z"/>
		<path class="st181" d="M228.8,55.1v295.8H92.5c-51.1,0-92.5-42-92.5-93.7V148.8c0-4.3,0.3-8.5,0.9-12.7c6.1-45.8,44.8-81,91.6-81
			H228.8z"/>
		<path class="st37" d="M1058.3,244.4H0.9v-80.3h1057.5c-22.9,0-41.5,18-41.5,40.1C1016.8,226.4,1035.4,244.4,1058.3,244.4z"/>
		<path class="st180" d="M1211.5,331.7v107.7c0,3.6-0.2,7.1-0.6,10.6c-0.1,1-0.2,2-0.4,3c-4.7,31.5-25.3,57.7-53.4,69.8
			c-0.2,0.1-0.3,0.1-0.5,0.2c-0.1,0.1-0.2,0.1-0.4,0.2h0c-8.3,3.5-17.2,5.8-26.6,6.6c-2.5,0.2-5.1,0.3-7.7,0.3H992.1V241H1122
			C1171.4,241,1211.5,281.6,1211.5,331.7z"/>
		<path class="st179" d="M1128.8,110.2c0,15.2-6.1,29-15.9,39c-9.8,10-23.4,16.1-38.4,16.1H0.9v-29.1c6.1-45.8,44.8-81,91.6-81h982
			C1104.5,55.1,1128.8,79.7,1128.8,110.2z"/>
		<path class="st181" d="M1211.5,331.7v18.8c-2.7,0.4-5.5,0.6-8.3,0.6H90.9c-3.8,0-7.5-0.4-11-1.1c-0.9-0.2-1.7-0.4-2.5-0.6h0
			c-23.4-6.1-40.8-27.7-40.8-53.3c0-15.2,6.1-29,15.9-39c5.5-5.6,12.2-10,19.6-12.8c5.8-2.2,12.2-3.4,18.8-3.4H1122
			C1171.4,241,1211.5,281.6,1211.5,331.7z"/>
		<path class="st182" d="M1211.5,349.4v73c-0.2,0-0.5,0-0.7,0H74.2c5.3,0,10.5-1,15.1-2.7c0,0,0.1,0,0.1,0c0,0,0,0,0,0
			c5-1.9,9.4-4.6,13.2-7.9c7.3-6.6,11.9-15.7,11.9-25.8c0-2.3-0.2-4.6-0.7-6.8h0c-0.7-3.6-2.1-7-3.9-10.2
			c-4.9-8.3-13.2-14.8-23.3-17.7c-0.3-0.1-0.6-0.2-0.9-0.3c-3.1-0.8-6.3-1.3-9.6-1.5c-0.6,0-1.3,0-1.9,0h1136.9
			C1211,349.4,1211.3,349.4,1211.5,349.4z"/>
	</g>
	<line class="st185" x1="347.3" y1="680.3" x2="1027.7" y2="680.3"/>
	<line class="st185" x1="238.3" y1="724.6" x2="704.7" y2="724.6"/>
	<path class="st171" d="M419.1,372.1c0-95.5,77.4-173,173-173c95.5,0,173,77.4,173,173"/>
	<g>
		<g>
			<g>
				<path class="st186" d="M1211.5,347.3v62.1c-4.1,5.8-9.5,10.4-15.8,13c-3.4,1.4-7,2.1-10.9,2.1l-31.8,0.1l-72,0.1h0l-47.4,0.1h0
					l-41.5,0.1l-135.7,0.3h0l-17.1,0h-0.1l-16.5,0h0l-17.2,0l-173.7,0.3l-13.9,0h0l-26.3,0.1h0l-14.1,0h0L406.8,426h0l-12.1,0
					l-33.1,0.1c0,0,0,0,0,0l-12.1,0h0l-167.7,0.3h0l-10.8,0h0l-38.4,0.1h0l-10.9,0l-57.3,0.1c3.1-1.8,6.4-3.2,9.8-4.4h0
					c4.8-1.6,9.9-2.5,15.1-2.7c0,0,0.1,0,0.1,0c0,0,0,0,0,0c5-1.9,9.4-4.6,13.2-7.9c7.3-6.6,11.9-15.7,11.9-25.8
					c0-2.3-0.2-4.6-0.7-6.8h0c-0.7-3.6-2.1-7-3.9-10.2c-4.9-8.3-13.2-14.8-23.3-17.7c-0.3-0.1-0.6-0.2-0.9-0.3
					c-3.1-0.8-6.3-1.3-9.6-1.5h1.5l21.6,0l129.9-0.3l763.3-1.5l194.7-0.4H1211.5z"/>
			</g>
			<g>
				<path class="st182" d="M1211.5,386.9v52.5c0,3.6-0.2,7.1-0.6,10.6c-0.1,1-0.2,2-0.4,3c-7.4,3.6-16,6.4-27.1,7.6
					c-3.9,0.4-8,0.7-12.5,0.7c-56.6,0-56.6-36.4-113.2-36.4c-34.1,0-47.7,13.2-65.5,23.8c-11.7,6.9-25.2,12.6-47.7,12.6
					c-53.8,0-56.5-32.9-105.1-36.1h-0.1c-2.5-0.2-5.2-0.3-8-0.3c-3,0-5.8,0.1-8.5,0.3h0c-48.2,3.5-51.1,36.1-104.7,36.1
					c-51.9,0-56.2-30.6-100.3-35.7h0c-4-0.5-8.2-0.7-12.9-0.7c-4.8,0-9.3,0.3-13.4,0.8h0c-43.7,5.2-48.1,35.6-99.8,35.6
					c-50.6,0-56-29.1-96.9-35.3c-4.9-0.7-10.3-1.2-16.3-1.2c-6.2,0-11.8,0.4-16.8,1.2c0,0,0,0,0,0c-40.5,6.4-46.1,35.2-96.5,35.2
					c-37.6,0-50.2-16-71-26.8c-6.6-3.4-13.9-6.3-23.2-8h0c-5.6-1-11.8-1.6-19-1.6c-7.3,0-13.7,0.6-19.4,1.7h0
					c-38.2,7.1-44.5,34.7-93.8,34.7h-0.5c0.2-0.9,0.5-1.9,0.8-2.8c4.1-13.6,13.3-25,25.4-31.8c3.1-1.8,6.4-3.2,9.8-4.4h0
					c4.8-1.6,9.9-2.5,15.1-2.7c0,0,0.1,0,0.1,0c0,0,0,0,0,0c5-1.9,9.4-4.6,13.2-7.9c7.3-6.6,11.9-15.7,11.9-25.8
					c0-2.3-0.2-4.6-0.7-6.8h0c-0.7-3.6-2.1-7-3.9-10.2c9-4.6,19.5-8.3,34.1-9.3c2.5-0.2,5.2-0.3,8-0.3c2.8,0,5.5,0.1,8,0.3
					c14.7,1,25.3,4.7,34.3,9.4c6,3.1,11.3,6.6,16.7,10.1h0c13.4,8.6,27.5,16.7,54.2,16.7c56.6,0,56.6-36.4,113.2-36.4
					c56.6,0,56.6,36.4,113.2,36.4c56.6,0,56.6-36.4,113.2-36.4c56.6,0,56.6,36.4,113.2,36.4c56.6,0,56.6-36.4,113.2-36.4
					c56.6,0,56.6,36.4,113.2,36.4c22.5,0,36.1-5.8,47.8-12.7c17.8-10.5,31.3-23.7,65.4-23.7c56.6,0,56.6,36.4,113.2,36.4
					C1188.9,395.8,1201.3,392,1211.5,386.9z"/>
			</g>
		</g>
		<g>
			<path class="st180" d="M1210.9,450c-0.1,1-0.2,2-0.4,3c-4.7,31.5-25.3,57.7-53.4,69.8c-0.2,0.1-0.3,0.1-0.5,0.2
				c-0.1,0.1-0.2,0.1-0.3,0.2c0,0,0,0-0.1,0h0c-42.6-5.6-47.4-35.5-98.7-35.5c-34.1,0-47.7,13.2-65.5,23.8
				c-11.7,6.9-25.3,12.7-47.7,12.7c-56.6,0-56.6-36.4-113.2-36.4c-56.6,0-56.6,36.4-113.2,36.4s-56.6-36.4-113.2-36.4
				s-56.6,36.4-113.2,36.4c-56.6,0-56.6-36.4-113.2-36.4c-56.6,0-56.6,36.4-113.2,36.4c-56.6,0-56.6-36.4-113.2-36.4
				c-47.4,0-55.1,25.5-89.5,33.8c-15.5-9.7-25.8-26.8-25.8-46.4v-0.8c0-4.5,0.5-8.8,1.6-13c0.2-0.9,0.5-1.9,0.8-2.8
				c44-0.1,53.7-22.2,82.7-31.9c6.4-2.2,13.8-3.7,22.7-4.3c2.4-0.2,4.9-0.2,7.5-0.2c2.6,0,5.2,0.1,7.6,0.2c8.7,0.5,16,2,22.3,4.1h0
				c29.3,9.7,38.9,32.1,83.3,32.1c44.9,0,54.2-22.9,84.4-32.4h0c6.1-1.9,13-3.3,21.2-3.8c2.4-0.1,4.9-0.2,7.6-0.2s5.2,0.1,7.6,0.2
				c8.1,0.5,14.9,1.8,20.9,3.7h0c30.5,9.4,39.6,32.5,84.7,32.5c45.6,0,54.5-23.7,85.9-32.9h0c5.7-1.7,12.2-2.9,19.7-3.3
				c2.4-0.1,4.9-0.2,7.6-0.2c2.7,0,5.2,0.1,7.6,0.2c7.4,0.5,13.8,1.6,19.4,3.2c31.7,9.1,40.4,33,86.2,33c46.4,0,54.8-24.5,87.5-33.3
				c5.3-1.4,11.3-2.5,18.1-2.9c2.4-0.1,4.9-0.2,7.6-0.2c2.7,0,5.2,0.1,7.6,0.2c6.7,0.4,12.5,1.4,17.7,2.8h0
				c33,8.7,41.3,33.4,87.9,33.4c22.5,0,36.1-5.8,47.8-12.7c12.9-7.6,23.6-16.7,41.5-21.1h0c4.9-1.2,10.2-2,16.3-2.4
				c2.4-0.1,4.9-0.2,7.6-0.2c2.7,0,5.2,0.1,7.6,0.2c5.9,0.4,11.2,1.2,15.9,2.3h0c34.6,8.3,42.2,33.9,89.7,33.9
				c4.2,0,8.2-0.2,11.8-0.6C1194.3,456.8,1203.2,453.8,1210.9,450z"/>
		</g>
	</g>
	<line class="st187" x1="175.9" y1="555.7" x2="1008.4" y2="555.7"/>
	<line class="st187" x1="175.9" y1="615.8" x2="1008.4" y2="615.8"/>
	<path class="st188" d="M158.4,585.3c0,35.3,28.6,63.9,63.9,63.9h63.3V523.6H158.4V585.3z"/>
	<path class="st188" d="M91.6,585.3c0,35.3,33,63.9,73.7,63.9h73V523.6H124.6c-18.3,0-33,14.8-33,33V585.3z"/>
	<path class="st188" d="M1155.2,585.3c0,35.3-33,63.9-73.7,63.9h-73V523.6h115.3c17.4,0,31.5,14.1,31.5,31.5V585.3z"/>
	<line class="st189" x1="203" y1="615.5" x2="448.8" y2="615.5"/>
	<g>
		<g>
			<path class="st190" d="M369.9,347c0,0-0.6,1.8-1.4,4.5c-0.4,1.3-0.9,2.9-1.4,4.5c-0.6,1.6-1.3,3.4-2,5.1c-0.3,0.9-0.7,1.7-1,2.6
				c-0.2,0.4-0.3,0.8-0.5,1.2c-0.2,0.4-0.4,0.8-0.5,1.2c-0.7,1.6-1.4,3-2,4.3c-0.6,1.2-1,2.3-1.4,3c-0.4,0.7-0.6,1.1-0.6,1.1
				l45.5,6.9c0,0,0-0.6-0.1-1.6c-0.1-1-0.3-2.4-0.5-4.1c-0.2-1.7-0.5-3.6-0.8-5.7c-0.1-0.5-0.2-1-0.2-1.6c-0.1-0.5-0.2-1.1-0.3-1.6
				c-0.2-1.1-0.4-2.2-0.6-3.3c-0.4-2.2-0.9-4.4-1.3-6.4c-0.5-2-1-3.9-1.4-5.5c-0.8-3.2-1.4-5.3-1.4-5.3L369.9,347z"/>
			<path class="st191" d="M368.1,375.9c0,0-0.9,1.7-2.2,4.2c-0.7,1.3-1.3,2.7-2.3,4.2c-0.9,1.5-1.8,3.1-2.8,4.7
				c-0.5,0.8-0.9,1.6-1.4,2.4c-0.5,0.8-1,1.5-1.5,2.2c-1,1.4-1.9,2.8-2.6,3.9c-0.8,1.1-1.4,2.1-1.9,2.7c-0.5,0.6-0.8,1-0.8,1
				l43.7,14.4c0,0,0-0.6,0.1-1.5c0.1-1,0.1-2.4,0.2-4.1c0-1.7,0.1-3.7,0.2-5.8c0-1,0.1-2.1,0.1-3.2c0-1.1-0.1-2.2-0.1-3.3
				c-0.1-2.2-0.1-4.4-0.2-6.5c-0.1-2.1-0.3-4-0.4-5.6c-0.3-3.3-0.5-5.4-0.5-5.4L368.1,375.9z"/>
			<path class="st190" d="M361.3,403.9c0,0-1.1,1.5-2.8,3.8c-1.6,2.3-4.1,5.2-6.5,8c-1.2,1.4-2.4,2.8-3.6,4.1
				c-1.2,1.3-2.3,2.4-3.2,3.4c-0.9,1-1.8,1.8-2.3,2.3c-0.6,0.6-0.9,0.9-0.9,0.9l40.8,21.3c0,0,0.1-0.5,0.4-1.5c0.2-1,0.6-2.3,0.9-4
				c0.3-1.7,0.7-3.6,1.1-5.7c0.4-2.1,0.8-4.2,1.1-6.5c0.6-4.4,1.2-8.7,1.4-12.1c0.2-3.3,0.4-5.4,0.4-5.4L361.3,403.9z"/>
			<path class="st191" d="M349.8,430.7c0,0-1.4,1.3-3.4,3.3c-0.5,0.5-1,1-1.7,1.6c-0.6,0.5-1.3,1.1-1.9,1.7
				c-1.3,1.2-2.7,2.4-4.1,3.6c-0.7,0.6-1.4,1.2-2.2,1.8c-0.7,0.6-1.4,1.1-2.1,1.6c-1.4,1.1-2.6,2-3.7,2.9c-1.1,0.8-2.1,1.4-2.7,1.9
				c-0.7,0.5-1,0.7-1,0.7l36.7,27.7c0,0,0.2-0.5,0.6-1.4c0.4-0.9,1-2.2,1.6-3.8c0.6-1.6,1.3-3.4,2-5.4c0.4-1,0.7-2,1.1-3
				c0.4-1,0.8-2.1,1.1-3.1c0.6-2.1,1.3-4.2,1.9-6.2c0.3-1,0.6-1.9,0.8-2.8c0.3-0.9,0.5-1.8,0.7-2.6c0.8-3.2,1.3-5.3,1.3-5.3
				L349.8,430.7z"/>
			<path class="st190" d="M334.1,455.2c0,0-1.6,1.1-3.9,2.7c-2.4,1.6-5.6,3.5-8.8,5.5c-3.3,1.8-6.5,3.5-8.9,4.8
				c-2.5,1.1-4.1,1.9-4.1,1.9l31.4,33.5c0,0,1.2-1.9,3.1-4.8c1.7-2.9,4-6.9,6.1-10.8c2-4,4-8,5.3-11c1.3-3,2.1-5.1,2.1-5.1
				L334.1,455.2z"/>
			<path class="st191" d="M314.5,476.6c0,0-1.7,0.8-4.3,2c-2.7,1.1-6.1,2.6-9.7,4c-1.8,0.7-3.6,1.3-5.2,1.9
				c-1.7,0.6-3.2,1.2-4.6,1.6c-2.7,0.9-4.5,1.5-4.5,1.5l26.5,37.4c0,0,1.4-1.7,3.5-4.2c1-1.2,2.2-2.8,3.5-4.4
				c1.3-1.6,2.6-3.3,3.9-5.1c2.7-3.5,5.2-7.1,7.1-9.8c1.8-2.8,3-4.6,3-4.6L314.5,476.6z"/>
			<path class="st190" d="M291.5,494.9c0,0-1.9,0.6-4.7,1.5c-1.4,0.5-3.1,1-4.9,1.5c-1.8,0.5-3.7,1.1-5.6,1.7
				c-7.8,2.3-15.5,4.5-15.5,4.5l24.6,38.7c0,0,1.4-1.5,3.5-3.8c2.1-2.3,4.9-5.4,7.7-8.5c1.4-1.6,2.8-3.2,4.1-4.6
				c1.3-1.5,2.5-2.9,3.6-4.1c2.1-2.4,3.4-4,3.4-4L291.5,494.9z"/>
			<path class="st191" d="M265.6,511.7c0,0-2,0.6-4.9,1.4c-3,0.9-6.9,2-10.9,3.2c-4,1.2-8,2.5-11.1,3.5c-1.5,0.5-2.8,0.9-3.7,1.2
				c-0.9,0.3-1.4,0.5-1.4,0.5l25.8,37.8c0,0,0.3-0.4,0.8-1c0.6-0.7,1.3-1.6,2.3-2.7c1.9-2.3,4.5-5.3,7.2-8.3c2.7-3,5.4-6,7.4-8.3
				c2.1-2.3,3.4-3.8,3.4-3.8L265.6,511.7z"/>
			<path class="st190" d="M238.6,529c0,0-2,0.7-5,1.7c-3,1.1-7.1,2.5-11.1,4.2c-1,0.4-2,0.8-3,1.2c-1,0.4-2,0.9-3,1.3
				c-1.9,0.9-3.8,1.6-5.3,2.4c-3.1,1.5-5.1,2.5-5.1,2.5l30.5,34.3c0,0,1-1.5,2.4-3.9c0.7-1.2,1.6-2.5,2.6-3.9c0.5-0.7,1-1.5,1.5-2.2
				c0.6-0.8,1.1-1.5,1.7-2.3c2.2-3.1,4.7-6.1,6.5-8.5c1.9-2.3,3.1-3.8,3.1-3.8L238.6,529z"/>
			<path class="st191" d="M212,549c0,0-0.1,0.1-0.4,0.2c-0.2,0.1-0.6,0.3-1,0.5c-0.9,0.5-2.1,1.1-3.5,1.9c-0.7,0.4-1.5,0.8-2.4,1.3
				c-0.8,0.5-1.7,1-2.6,1.5c-1.8,1.1-3.8,2.2-5.7,3.4c-7.7,4.7-15.1,10.8-15.1,10.8l36.7,27.6c0,0,0.1-0.4,0.4-1.1
				c0.2-0.7,0.6-1.8,1.1-3c0.5-1.2,1.1-2.7,1.7-4.2c0.7-1.5,1.5-3.2,2.2-4.8c0.7-1.7,1.7-3.3,2.4-4.8c0.4-0.8,0.8-1.5,1.2-2.2
				c0.4-0.7,0.8-1.4,1.1-2c0.7-1.2,1.3-2.2,1.7-3c0.2-0.4,0.4-0.6,0.5-0.8c0.1-0.2,0.2-0.3,0.2-0.3L212,549z"/>
			<path class="st190" d="M188.6,573.8c0,0-0.4,0.3-1.2,1c-0.8,0.6-1.9,1.5-3.2,2.6c-1.3,1.1-2.8,2.5-4.4,3.9
				c-1.6,1.5-3.2,3.2-4.9,4.8c-0.8,0.8-1.6,1.7-2.4,2.6c-0.8,0.9-1.5,1.8-2.3,2.6c-0.7,0.9-1.5,1.7-2.1,2.5
				c-0.6,0.8-1.2,1.6-1.8,2.4c-1.1,1.5-2,2.7-2.7,3.6c-0.6,0.9-0.9,1.5-0.9,1.5l43.1,16.2c0,0,0-0.4,0-1.1c0-0.7,0.1-1.7,0.2-2.9
				c0-0.6,0.1-1.3,0.1-2c0-0.7,0.2-1.4,0.3-2.2c0.1-0.8,0.2-1.6,0.3-2.4c0.1-0.8,0.2-1.7,0.4-2.5c0.4-1.7,0.7-3.4,1.1-5
				c0.5-1.6,0.9-3.1,1.3-4.4c0.4-1.3,0.8-2.4,1-3.1c0.3-0.8,0.4-1.2,0.4-1.2L188.6,573.8z"/>
			<path class="st191" d="M171.1,604.5c0,0-1.3,2-3.2,4.9c-1.8,3.1-4.2,7.3-6.1,11.9c-0.5,1.1-1,2.3-1.4,3.5
				c-0.4,1.2-0.8,2.3-1.2,3.5c-0.8,2.3-1.5,4.4-1.9,6.3c-0.9,3.8-0.5,1.9-0.5,1.9l45,2.8c0,0-0.5-1.4-1.4-3.4
				c-0.5-1.1-0.8-2.3-1.2-3.7c-0.2-0.7-0.4-1.4-0.6-2.2c-0.2-0.8-0.3-1.5-0.4-2.3c-0.7-3.1-0.8-6.5-1-9c0-2.6,0-4.3,0-4.3
				L171.1,604.5z"/>
			<path class="st192" d="M395.8,380l8.9,1.3c0,0,0-0.6-0.1-1.6c-0.1-1-0.3-2.4-0.5-4.1c-0.2-1.7-0.5-3.6-0.8-5.7
				c-0.1-0.5-0.2-1-0.2-1.6c-0.1-0.5-0.2-1.1-0.3-1.6c-0.2-1.1-0.4-2.2-0.6-3.3c-0.4-2.2-0.9-4.4-1.3-6.4c-0.5-2-1-3.9-1.4-5.5
				c-0.8-3.2-1.4-5.3-1.4-5.3l-13.9,0.4c0,0,0,1.5,0,4.2c0,1.4,0,3.1,0,5.1c0,2-0.2,4.3-0.4,6.9c-0.7,10.3-2.6,24.9-7.7,41.8
				c-2.7,8.4-5.9,17.4-10.5,26.5c-0.6,1.1-1.1,2.3-1.7,3.4c-0.6,1.1-1.2,2.3-1.8,3.4c-0.6,1.1-1.2,2.3-1.9,3.4
				c-0.3,0.6-0.6,1.2-0.9,1.7l-1,1.7c-1.4,2.3-2.8,4.6-4.2,6.9c-1.5,2.2-3.1,4.5-4.7,6.8c-6.5,9-13.9,17.7-22.3,25.8
				c-2.1,2-4.3,4-6.4,5.9l-3.4,2.8l-1.7,1.4l-1.7,1.4l-3.5,2.7l-3.5,2.7c-2.3,1.8-4.8,3.5-7.2,5.2c-19.4,13.5-40.1,25-58.3,37.7
				c-9.1,6.3-17.5,12.9-24.9,19.9c-7.4,6.9-13.7,14.2-18.9,21.4c-5.2,7.2-9.1,14.3-11.9,20.9c-2.7,6.6-4.5,12.6-5.3,17.7
				c-0.2,1.3-0.5,2.5-0.6,3.6c-0.1,1.1-0.2,2.2-0.3,3.2c-0.1,1-0.2,1.9-0.3,2.8c0,0.8,0,4.4,0,5.1c0,2.8,0,0,0,0l22.9,0.7
				c0,0-0.5-1.4-1.4-3.4c-0.5-1.1-0.8-2.3-1.2-3.7c-0.2-0.7-0.4-1.4-0.6-2.2c-0.2-0.8-0.3-1.5-0.4-2.3c-0.7-3.1-0.8-6.5-1-9
				c0-2.6,0-4.3,0-4.3l8.4,3.2c0,0,0-0.4,0-1.1c0-0.7,0.1-1.7,0.2-2.9c0.1-1.2,0.1-2.6,0.4-4.2c0.1-0.8,0.2-1.6,0.3-2.4
				c0.1-0.8,0.2-1.7,0.4-2.5c0.4-1.7,0.7-3.4,1.1-5c0.5-1.6,0.9-3.1,1.3-4.4c0.4-1.3,0.8-2.4,1-3.1c0.3-0.8,0.4-1.2,0.4-1.2l7.2,5.4
				c0,0,0.1-0.4,0.4-1.1c0.2-0.7,0.6-1.8,1.1-3c0.5-1.2,1.1-2.7,1.7-4.2c0.7-1.5,1.5-3.2,2.2-4.8c0.7-1.7,1.7-3.3,2.4-4.8
				c0.4-0.8,0.8-1.5,1.2-2.2c0.4-0.7,0.8-1.4,1.1-2c0.7-1.2,1.3-2.2,1.7-3c0.2-0.4,0.4-0.6,0.5-0.8c0.1-0.2,0.2-0.3,0.2-0.3l6,6.7
				c0,0,1-1.5,2.4-3.9c0.7-1.2,1.6-2.5,2.6-3.9c0.5-0.7,1-1.5,1.5-2.2c0.6-0.8,1.1-1.5,1.7-2.3c2.2-3.1,4.7-6.1,6.5-8.5
				c1.9-2.3,3.1-3.8,3.1-3.8l5.1,7.4c0,0,0.3-0.4,0.8-1c0.6-0.7,1.3-1.6,2.3-2.7c1.9-2.3,4.5-5.3,7.2-8.3c2.7-3,5.4-6,7.4-8.3
				c2.1-2.3,3.4-3.8,3.4-3.8l4.8,7.6c0,0,1.4-1.5,3.5-3.8c2.1-2.3,4.9-5.4,7.7-8.5c1.4-1.6,2.8-3.1,4.1-4.6c1.3-1.5,2.5-2.9,3.5-4.1
				c2-2.4,3.4-4,3.4-4l5.2,7.3c0,0,1.4-1.7,3.5-4.2c1-1.2,2.2-2.8,3.5-4.4c1.3-1.6,2.6-3.3,3.9-5.1c2.7-3.5,5.2-7.1,7.1-9.8
				c1.8-2.8,3-4.6,3-4.6l6.1,6.5c0,0,1.2-1.9,3.1-4.8c1.7-2.9,4-6.9,6.1-10.8c2-4,4-8,5.3-11c1.3-3,2.1-5.1,2.1-5.1l7.2,5.4
				c0,0,0.2-0.5,0.6-1.4c0.4-0.9,1-2.2,1.6-3.8c0.6-1.6,1.3-3.4,2-5.4c0.4-1,0.7-2,1.1-3c0.4-1,0.8-2.1,1.1-3.1
				c0.6-2.1,1.3-4.2,1.9-6.2c0.3-1,0.6-1.9,0.8-2.8c0.3-0.9,0.5-1.8,0.7-2.6c0.8-3.2,1.3-5.3,1.3-5.3l8,4.2c0,0,0.1-0.5,0.4-1.5
				c0.2-1,0.6-2.3,0.9-4c0.3-1.6,0.7-3.6,1.1-5.6c0.4-2,0.8-4.2,1.1-6.4c0.6-4.4,1.3-8.7,1.4-12c0.2-3.3,0.4-5.4,0.4-5.4l8.5,2.8
				c0,0,0-0.6,0.1-1.5c0.1-1,0.1-2.4,0.2-4.1c0-1.7,0.1-3.7,0.2-5.8c0-1,0.1-2.1,0.1-3.2c0-1.1-0.1-2.2-0.1-3.3
				c-0.1-2.2-0.1-4.4-0.2-6.5c-0.1-2.1-0.3-4-0.4-5.6C396,382.2,395.8,380,395.8,380z"/>
		</g>
		<g>
			<path class="st193" d="M606,402.1l-37.5-8l-11.9-23.3l-0.2,20.7l-16.5-3.5l-11.9-23.3l-0.2,20.7l-16.5-3.5l-11.9-23.3l-0.2,20.7
				l-16.5-3.5L471,352.7l-0.2,20.7l-16.5-3.5l-11.9-23.3l-0.2,20.7l-16.5-3.5l-7.4-20.2l-4.6,17.6l-32.2-6.9c0,0,35.4-37,98.2-28.3
				C553.8,336.3,606,402.1,606,402.1z"/>
			<path class="st193" d="M149.5,339.4l38.3,2.3l17.7-19.3l-5.4,20l16.8,1l17.7-19.3l-5.4,20l16.8,1l17.7-19.3l-5.4,20l16.8,1
				l17.7-19.3l-5.4,20l16.8,1l17.7-19.3l-5.4,20l16.8,1l12.6-17.4l-0.3,18.2l32.9,2c0,0-24.2-45-87.1-53.4
				C217.5,289.9,149.5,339.4,149.5,339.4z"/>
			<path class="st194" d="M610.4,286.1l-36.6,11.4L551.9,283l10.2,18.1l-16.1,5l-21.9-14.4l10.2,18.1l-16.1,5l-21.9-14.4l10.2,18.1
				l-16.1,5l-21.9-14.4l10.2,18.1l-16.1,5l-21.9-14.4l10.2,18.1l-16.1,5l-16.5-13.9l4.7,17.6l-31.4,9.8c0,0,12.4-49.5,71.3-72.7
				C532.3,254.3,610.4,286.1,610.4,286.1z"/>
			<path class="st193" d="M553.3,196.9l-27.8,26.2l-26.1-3.4l17.1,11.9L504.4,243l-26.1-3.4l17.1,11.9L483.2,263l-26.1-3.4
				l17.1,11.9l-12.2,11.5l-26.1-3.4l17.1,11.9l-12.2,11.5l-26.1-3.4l17.1,11.9l-12.2,11.5l-21-5.3l12,13.7L387,353.7
				c0,0-10.8-49.9,31.8-96.4C469.1,202.4,553.3,196.9,553.3,196.9z"/>
			<path class="st194" d="M182.7,227.5l32.2,20.7l25-8.1l-14.6,14.8l14.1,9.1l25-8.1l-14.6,14.8l14.1,9.1l25-8.1l-14.6,14.8
				l14.1,9.1l25-8.1l-14.6,14.8l14.1,9.1l25-8.1L323.2,318l14.1,9.1l19.6-9l-9.3,15.7l27.7,17.8c0,0,1.4-51-49.2-89
				C266.5,217.7,182.7,227.5,182.7,227.5z"/>
			<path class="st194" d="M392.4,125.9l-2,38l19.6,17.4l-20.2-5.2l-0.9,16.7l19.6,17.4l-20.2-5.2l-0.9,16.7l19.6,17.4l-20.2-5.2
				l-0.9,16.7l19.6,17.4l-20.2-5.2l-0.9,16.7L404,297l-20.2-5.2l-0.9,16.7l17.7,12.4l-18.3-0.1l-1.7,32.6c0,0,45.2-24.3,53.1-86.7
				C442.9,193,392.4,125.9,392.4,125.9z"/>
			<path class="st193" d="M262.1,161.7l19.8,32.6l26.1,3.6l-19.7,6.9l8.7,14.3l26.1,3.6l-19.7,6.9L312,244l26.1,3.6l-19.7,6.9
				l8.7,14.3l26.1,3.6l-19.7,6.9l8.7,14.3l26.1,3.6l-19.7,6.9l8.7,14.3l21.6,0.5l-15.3,10l17,28c0,0,23.8-45.2-4.8-101.3
				C341.8,189.4,262.1,161.7,262.1,161.7z"/>
		</g>
	</g>
	<line class="st189" x1="592.3" y1="625.8" x2="884.5" y2="625.8"/>
	<g>
		<path class="st190" d="M851,250.8c0,0,0,2.2,0,5.5c0,1.6,0,3.6,0,5.6c0,2.1,0,4.2,0.1,6.4c0.1,4.3,0.3,8.6,0.4,11.9
			c0.2,3.2,0.4,5.3,0.4,5.3l-45.3-9.2c0,0,1-2.2,2.5-5.4c1.6-3.2,3.8-7.4,5.9-11.6c1.1-2.1,2.2-4.1,3.3-6.1c1.1-1.9,2.1-3.7,2.9-5.2
			c1.7-3,2.8-5.1,2.8-5.1L851,250.8z"/>
		<path class="st191" d="M842.9,283.8c0,0,0.1,2.2,0.3,5.4c0.1,1.6,0.3,3.5,0.5,5.5c0.2,2,0.4,4.1,0.7,6.3c0.1,1.1,0.2,2.1,0.3,3.2
			c0.2,1,0.3,2.1,0.5,3c0.3,2,0.6,3.8,0.8,5.4c0.2,1.6,0.4,2.8,0.6,3.8c0.2,0.9,0.3,1.4,0.3,1.4l-46-4.3c0,0,0.2-0.6,0.5-1.6
			c0.4-1,0.9-2.4,1.5-4.1c0.6-1.7,1.4-3.7,2.2-5.8c0.4-1.1,0.8-2.1,1.2-3.2c0.5-1.1,0.9-2.2,1.4-3.3c0.9-2.2,1.9-4.4,2.7-6.4
			c0.9-2,1.7-3.9,2.5-5.5c1.5-3.2,2.5-5.3,2.5-5.3L842.9,283.8z"/>
		<path class="st190" d="M837.8,316.8c0,0,0.4,2.1,1,5.3c0.3,1.6,0.7,3.4,1,5.4c0.5,1.9,1,4,1.5,6.1c0.5,2.1,1,4.1,1.5,6
			c0.6,1.9,1.1,3.6,1.5,5.1c0.9,3,1.5,5,1.5,5l-46.2,1.8c0,0,0.5-2.4,1.3-6c0.4-1.8,0.9-3.9,1.3-6.1c0.5-2.2,1.2-4.6,1.8-6.9
			c0.6-2.3,1.3-4.6,1.9-6.8c0.7-2.1,1.3-4.1,1.9-5.8c1.1-3.4,1.8-5.6,1.8-5.6L837.8,316.8z"/>
		<path class="st191" d="M836.9,349.9c0,0,0.1,0.5,0.5,1.4c0.3,0.9,0.7,2.2,1.3,3.7c0.5,1.5,1.1,3.3,1.8,5.2
			c0.6,1.9,1.5,3.9,2.3,5.8c0.8,2,1.6,3.9,2.3,5.7c0.8,1.8,1.6,3.5,2.2,5c1.3,2.9,2.2,4.8,2.2,4.8l-45.6,7.7c0,0,0.2-2.4,0.5-6
			c0.2-1.8,0.3-3.9,0.5-6.2c0.3-2.2,0.6-4.6,0.9-7c0.3-2.4,0.6-4.7,1-7c0.4-2.2,0.7-4.3,1.1-6.1c0.3-1.8,0.6-3.2,0.8-4.2
			c0.2-1,0.3-1.6,0.3-1.6L836.9,349.9z"/>
		<path class="st190" d="M840.4,383c0,0,0.2,0.5,0.6,1.4c0.4,0.9,1,2.1,1.7,3.5c0.7,1.5,1.6,3.1,2.4,5c0.4,0.9,0.9,1.8,1.4,2.8
			c0.5,0.9,1,1.9,1.5,2.8c2.1,3.8,4,7.6,5.7,10.4c1.6,2.8,2.7,4.7,2.7,4.7l-44.6,12.1c0,0-0.1-2.4-0.1-5.9c-0.1-3.5,0-8.4,0-13.1
			c0-1.2,0-2.4,0.1-3.5c0.1-1.2,0.1-2.3,0.2-3.4c0.1-2.2,0.2-4.3,0.3-6.1c0.1-1.8,0.1-3.2,0.2-4.3c0.1-1,0.1-1.6,0.1-1.6L840.4,383z
			"/>
		<path class="st191" d="M847.8,415.8c0,0,1.1,1.9,2.7,4.7c1.7,2.8,4,6.5,6.3,10.3c2.3,3.7,4.8,7.4,6.5,10.1
			c0.9,1.4,1.6,2.5,2.2,3.3c0.3,0.4,0.5,0.7,0.6,0.9c0.1,0.2,0.2,0.3,0.2,0.3l-43.7,15c0,0,0-0.2-0.1-0.4c0-0.3-0.1-0.7-0.1-1.2
			c-0.1-1-0.2-2.5-0.3-4.2c-0.2-3.5-0.6-8.1-0.9-12.8c-0.2-4.7-0.4-9.3-0.6-12.8c-0.1-3.5-0.1-5.8-0.1-5.8L847.8,415.8z"/>
		<path class="st190" d="M857.7,448.3c0,0,1.2,1.7,3,4.3c0.9,1.3,2,2.8,3.2,4.3c1.2,1.6,2.5,3.2,3.8,4.9c5.3,6.6,11,13.1,11,13.1
			l-41.6,20.2c0,0-2-9.2-3.6-18.7c-0.4-2.4-0.8-4.7-1.1-7c-0.3-2.2-0.6-4.3-0.8-6.1c-0.4-3.6-0.7-6-0.7-6L857.7,448.3z"/>
		<path class="st191" d="M870.8,478.9c0,0,5.8,6.7,11.8,13.3c6,6.7,12.1,13.5,12.1,13.5l-41.1,21.2c0,0-2-8.8-4-17.7
			c-1-4.5-2-9-2.8-12.3c-0.7-3.4-1.2-5.7-1.2-5.7L870.8,478.9z"/>
		<path class="st190" d="M886.5,509.9c0,0,6.1,6.8,12.1,13.9c3,3.5,6,7.1,8.2,9.9c1.1,1.4,2,2.5,2.7,3.3c0.6,0.8,1,1.3,1,1.3
			l-42.1,19.1c0,0-0.1-0.5-0.2-1.5c-0.2-0.9-0.4-2.3-0.7-3.9c-0.5-3.2-1.4-7.5-2.2-11.8c-1.8-8.6-3.8-17.4-3.8-17.4L886.5,509.9z"/>
		<path class="st191" d="M902.3,542c0,0,1.4,1.8,3.6,4.6c1.1,1.4,2.3,3,3.6,4.8c1.3,1.8,2.7,3.7,4.1,5.6c2.8,3.9,5.5,7.8,7.4,10.9
			c1,1.5,1.8,2.8,2.4,3.7c0.6,0.9,0.9,1.4,0.9,1.4l-43.8,14.7c0,0,0-0.5-0.1-1.4c0-0.9-0.1-2.2-0.2-3.8c-0.2-3.2-0.6-7.4-1.1-11.6
			c-0.3-2.1-0.5-4.3-0.8-6.3c-0.3-2-0.6-3.9-0.8-5.5c-0.5-3.2-0.9-5.4-0.9-5.4L902.3,542z"/>
		<path class="st190" d="M915.7,575.7c0,0,0.3,0.5,0.9,1.4c0.5,0.9,1.4,2.1,2.3,3.7c0.9,1.5,2,3.4,3.1,5.3c1.1,2,2.3,4.1,3.4,6.2
			c2.3,4.3,4.5,8.7,6,12c0.8,1.7,1.5,3.1,1.9,4.1c0.4,1,0.7,1.6,0.7,1.6l-45.4,8.4c0,0,0.1-0.5,0.1-1.4c0.1-0.9,0.2-2.2,0.3-3.7
			c0.3-3.1,0.4-7.2,0.5-11.5c0-2.1,0-4.2,0-6.2c-0.1-2-0.1-3.9-0.2-5.5c0-1.6-0.1-2.9-0.2-3.9c-0.1-0.9-0.1-1.5-0.1-1.5L915.7,575.7
			z"/>
		<path class="st191" d="M925,611.5c0,0,0.2,0.5,0.7,1.5c0.4,1,1.1,2.3,1.7,4c0.7,1.7,1.5,3.6,2.3,5.8c0.8,2.1,1.6,4.4,2.5,6.7
			c0.9,2.3,1.6,4.6,2.3,6.8c0.7,2.2,1.4,4.3,1.8,6c1,3.6,1.7,6,1.7,6l-46.2,1.1c0,0,0.5-2,1.2-5c0.4-1.5,0.8-3.3,1.1-5.2
			c0.4-1.9,0.8-3.9,1.1-6c0.3-2,0.7-4.1,1-6.1c0.2-2,0.5-3.8,0.7-5.4c0.2-1.6,0.3-2.9,0.4-3.8c0.1-0.9,0.1-1.5,0.1-1.5L925,611.5z"
			/>
		<path class="st196" d="M815.3,278.2l-8.9-1.8c0,0,1-2.2,2.5-5.4c1.6-3.2,3.8-7.4,5.9-11.6c1.1-2.1,2.2-4.1,3.3-6.1
			c1.1-1.9,2.1-3.7,2.9-5.2c1.7-3,2.8-5.1,2.8-5.1l13.4,3.8c0,0-0.4,1.6-1.2,4.6c-0.4,1.5-0.9,3.3-1.5,5.5c-0.6,2.2-1.3,4.6-1.9,7.4
			c-0.7,2.8-1.4,5.9-2.2,9.3c-0.8,3.4-1.5,7.1-2.3,11c-0.9,3.9-1.5,8.1-2.2,12.6c-0.8,4.4-1.3,9.1-1.9,14c-0.1,1.2-0.3,2.5-0.4,3.7
			c-0.1,1.3-0.2,2.5-0.3,3.8c-0.2,2.6-0.4,5.2-0.6,7.8c-0.1,2.7-0.2,5.4-0.2,8.1c0,1.4-0.1,2.8-0.1,4.1c0,1.4,0,2.8,0.1,4.2
			c0,11.3,1.1,23.2,2.8,35.4c0.5,3,1,6.1,1.4,9.2c0.6,3.1,1.2,6.2,1.8,9.3c0.6,3.1,1.4,6.2,2.1,9.3c0.7,3.1,1.4,6.3,2.3,9.4
			c0.8,3.1,1.7,6.3,2.5,9.4c0.9,3.1,1.9,6.2,2.8,9.4l1.4,4.7l1.5,4.7c1,3.1,2.1,6.2,3.1,9.4c4.3,12.4,9.8,24.4,15.5,36
			c5.8,11.6,11.7,22.8,17.3,33.8c5.6,11,10.8,21.7,15.2,32c4.5,10.4,8.3,20.3,11.2,29.7c6,18.8,8.7,35,9.9,46.4
			c0.4,2.8,0.5,5.4,0.7,7.6c0.2,2.2,0.3,4.1,0.3,5.7c0.1,3.1,0.2,4.7,0.2,4.7l-23,0.5c0,0,0.5-2,1.2-5c0.4-1.5,0.8-3.3,1.1-5.2
			c0.4-1.9,0.8-3.9,1.1-6c0.3-2,0.7-4.1,1-6.1c0.2-2,0.5-3.8,0.7-5.4c0.2-1.6,0.3-2.9,0.4-3.8c0.1-0.9,0.1-1.5,0.1-1.5l-8.9,1.6
			c0,0,0.1-0.5,0.1-1.4c0.1-0.9,0.2-2.2,0.3-3.7c0.3-3.1,0.4-7.2,0.5-11.4c0.2-8.4-0.4-16.9-0.4-16.9l-8.5,2.9c0,0,0-0.5-0.1-1.4
			c0-0.9-0.1-2.2-0.2-3.8c-0.2-3.2-0.6-7.4-1.1-11.6c-0.3-2.1-0.5-4.3-0.8-6.3c-0.3-2-0.6-3.9-0.8-5.5c-0.5-3.2-0.9-5.4-0.9-5.4
			l-8.2,3.7c0,0-0.1-0.5-0.2-1.5c-0.2-0.9-0.4-2.3-0.7-3.9c-0.5-3.2-1.4-7.5-2.2-11.8c-1.8-8.6-3.8-17.4-3.8-17.4l-8,4.1
			c0,0-2-8.8-4-17.7c-1-4.5-2-9-2.8-12.3c-0.7-3.4-1.2-5.7-1.2-5.7l-8.1,4c0,0-2-9.2-3.6-18.6c-0.4-2.4-0.8-4.7-1.1-6.9
			c-0.3-2.2-0.6-4.3-0.8-6.1c-0.4-3.6-0.7-6-0.7-6l-8.5,2.9c0,0,0-0.2-0.1-0.4c0-0.3-0.1-0.7-0.1-1.2c-0.1-1-0.2-2.5-0.3-4.2
			c-0.2-3.5-0.6-8.1-0.9-12.8c-0.2-4.7-0.4-9.3-0.6-12.8c-0.1-3.5-0.1-5.8-0.1-5.8l-8.7,2.4c0,0-0.1-2.4-0.1-5.9
			c-0.1-3.5,0-8.4,0-13.1c0-1.2,0-2.4,0.1-3.5c0.1-1.2,0.1-2.3,0.2-3.4c0.1-2.2,0.2-4.3,0.3-6.1c0.1-1.8,0.1-3.2,0.2-4.3
			c0.1-1,0.1-1.6,0.1-1.6l-8.9,1.5c0,0,0.2-2.4,0.5-6c0.2-1.8,0.3-3.9,0.5-6.2c0.3-2.2,0.6-4.6,0.9-7c0.3-2.4,0.6-4.7,1-7
			c0.4-2.2,0.7-4.3,1.1-6.1c0.3-1.8,0.6-3.2,0.8-4.2c0.2-1,0.3-1.6,0.3-1.6l-9,0.4c0,0,0.5-2.4,1.3-6c0.4-1.8,0.9-3.8,1.3-6.1
			c0.5-2.2,1.2-4.5,1.8-6.9c0.6-2.3,1.3-4.6,1.9-6.8c0.7-2.1,1.3-4.1,1.9-5.8c1.1-3.4,1.8-5.6,1.8-5.6l-9-0.8c0,0,0.2-0.6,0.5-1.6
			c0.4-1,0.9-2.4,1.5-4.1c0.6-1.7,1.4-3.7,2.2-5.8c0.4-1.1,0.8-2.1,1.2-3.2c0.5-1.1,0.9-2.2,1.4-3.3c0.9-2.2,1.9-4.4,2.7-6.4
			c0.9-2,1.7-3.9,2.5-5.5C814.3,280.3,815.3,278.2,815.3,278.2z"/>
	</g>
	<g>
		<g>
			<path class="st193" d="M602.3,334.5l38-5.1l13.6-22.3l-1.4,20.7l16.7-2.2l13.6-22.3l-1.4,20.7l16.7-2.2l13.6-22.3l-1.4,20.7
				l16.7-2.2l13.6-22.3l-1.4,20.7l16.7-2.2l13.6-22.3l-1.4,20.7l16.7-2.2l8.9-19.5l3.3,17.9l32.7-4.4c0,0-32.5-39.6-95.8-35.7
				C659.4,272.8,602.3,334.5,602.3,334.5z"/>
			<path class="st193" d="M1062.2,306.6l-38.3-0.6l-16.2-20.6l3.9,20.4l-16.9-0.3l-16.2-20.6l3.9,20.4l-16.9-0.3l-16.2-20.6
				l3.9,20.4l-16.9-0.3L920.1,284l3.9,20.4l-16.9-0.3l-16.2-20.6l3.9,20.4l-16.9-0.3l-11.2-18.3l-1.1,18.1l-33-0.5
				c0,0,27.5-43.1,90.9-46.6C998.2,252,1062.2,306.6,1062.2,306.6z"/>
			<path class="st194" d="M606.7,218.4l35.6,14.2l23-12.7l-11.5,17.3l15.6,6.2l23-12.7l-11.5,17.3l15.6,6.2l23-12.7L708,258.7
				l15.6,6.2l23-12.7l-11.5,17.3l15.6,6.2l23-12.7l-11.5,17.3l15.6,6.2l17.5-12.6l-6.1,17.2l30.6,12.2c0,0-8.6-50.3-65.5-77.9
				C687,192.7,606.7,218.4,606.7,218.4z"/>
			<path class="st193" d="M670.4,133.8l25.7,28.2l26.3-1.4l-18,10.5l11.3,12.4l26.3-1.4l-18,10.5l11.3,12.4l26.3-1.4l-18,10.5
				l11.3,12.4l26.3-1.4l-18,10.5l11.3,12.4l26.3-1.4l-18,10.5l11.3,12.4l21.3-3.7l-13,12.8l22.1,24.3c0,0,14.6-48.9-24.4-98.5
				C754,145.7,670.4,133.8,670.4,133.8z"/>
			<path class="st194" d="M1037.7,192.4l-33.7,18.2l-24.3-10l13.5,15.8l-14.8,8l-24.3-10l13.5,15.8l-14.8,8l-24.3-10l13.5,15.8
				l-14.8,8l-24.3-10l13.5,15.8l-14.8,8l-24.3-10l13.5,15.8l-14.8,8L857,269.6l8.1,16.3l-28.9,15.7c0,0,2.5-50.9,55.8-85
				C954.9,176.3,1037.7,192.4,1037.7,192.4z"/>
			<path class="st194" d="M807.5,73.1l27.8,40.2l-20.9,15.9l20.6-3.7l-0.4,16.7l-20.9,15.9l20.6-3.7l-0.4,16.7l-20.9,15.9l20.6-3.7
				l-0.4,16.7L812.4,216l20.6-3.7l-0.4,16.7L811.7,245l20.6-3.7l-0.4,16.7l-18.6,11l18.3,1.3l-0.8,32.7c0,0-43.2-27.6-46.3-90.4
				C780.8,138.3,807.5,73.1,807.5,73.1z"/>
			<path class="st193" d="M963.4,120.8l-22.2,31l-26.3,1.6l19.1,8.3l-9.7,13.6l-26.3,1.6l19.1,8.3l-9.7,13.6l-26.3,1.6l19.1,8.3
				l-9.7,13.6l-26.3,1.6l19.1,8.3l-9.7,13.6l-26.3,1.6l19.1,8.3l-9.7,13.6l-21.6-1.2l14.5,11.2l-19.1,26.7c0,0-20.3-46.9,12.5-100.7
				C881.9,142.3,963.4,120.8,963.4,120.8z"/>
		</g>
	</g>
	<line class="st189" x1="505.9" y1="579.8" x2="725" y2="579.8"/>
	<g>
		<path class="st201" d="M823,380.6c0,0-120.2,41.1-239,40.2c-118.8-1-218.6-16.6-218.6-16.6s121.1,116,219.8,118.8
			C683.1,525.8,823,380.6,823,380.6z"/>
		<path class="st201" d="M823,380.6c0,0-120.2,41.1-239,40.2c-118.8-1-218.6-16.6-218.6-16.6s121.1,116,219.8,118.8
			C683.1,525.8,823,380.6,823,380.6z"/>
		<path class="st202" d="M577.8,507.7c-23.5-0.5-53.2-2.9-76.1-7.9c27.6,13.1,56.4,22.5,83.6,23.2c28.6,0.8,60.9-11.1,92.2-28.3
			C642.3,503.1,613.7,508.5,577.8,507.7z"/>
		<path class="st202" d="M421.8,450.8c10.8,8,22.7,16.2,35.4,24.2c88.1,11,178.2,5.2,265.9-9.1c10.5-7.4,20.5-15,29.9-22.5
			C636.5,462.1,531.2,466.3,421.8,450.8z"/>
		<path class="st202" d="M823,380.6c0,0-120.2,41.1-239,40.2c-118.8-1-218.6-16.6-218.6-16.6s7.7,7.4,20.8,18.5
			c70.6,10.1,135.4,16.2,215,14.3c61.7-1.4,130.7-8,189.6-25.8C810.7,393.4,823,380.6,823,380.6z"/>
		<g>
			<path class="st202" d="M352.1,379.4c-4.6-14.3-0.9-28.2-0.9-28.2s11.1,9.2,15.7,23.5c4.6,14.3,0.9,28.2,0.9,28.2
				S356.6,393.7,352.1,379.4z"/>
			<path class="st202" d="M340.5,402.9c-14.8-2.6-25.4-12.4-25.4-12.4s13.3-5.5,28.1-2.9c14.8,2.6,25.4,12.4,25.4,12.4
				S355.3,405.5,340.5,402.9z"/>
			<circle class="st202" cx="369.1" cy="404.9" r="9.6"/>
		</g>
		<g>
			<path class="st202" d="M851.4,368.3c14.8-2.5,28.1,3.1,28.1,3.1s-10.7,9.7-25.5,12.2c-14.8,2.5-28.1-3.1-28.1-3.1
				S836.6,370.8,851.4,368.3z"/>
			<path class="st202" d="M829.7,353.5c4.6-14.3,15.8-23.4,15.8-23.4s3.6,14-1,28.2c-4.6,14.3-15.8,23.4-15.8,23.4
				S825.1,367.8,829.7,353.5z"/>
			
				<ellipse transform="matrix(0.1401 -0.9901 0.9901 0.1401 330.568 1143.7487)" class="st202" cx="823.8" cy="381.6" rx="9.6" ry="9.6"/>
		</g>
		<path class="st203" d="M464.5,479.6c37.6,22.9,81,42.4,120.8,43.5c89.6,2.5,214.6-119.1,234.9-139.5
			c-13.7,5.6-101.3,74.7-197.9,97.3C547.6,498.2,501.4,482.9,464.5,479.6z"/>
	</g>
</g>
</svg>
